<svg width="150" height="394" viewBox="0 0 150 394" fill="none" xmlns="http://www.w3.org/2000/svg">
<path d="M61.1874 181.448C58.4919 182.411 56.0626 184.235 54.1511 186.725C53.1543 188.011 43.8484 258.019 43.8484 258.019C43.8484 258.019 36.4008 291.672 34.8135 292.764C33.2214 293.856 45.2808 305.976 45.2808 305.976L63.7715 307.133L61.1874 181.448Z" fill="#1F2425"/>
<path d="M103.729 383.629C110.519 394.597 127.006 397.916 143.885 382.709C154.633 368.104 149.387 343.756 132.948 325.574C123.778 318.661 115.179 310.684 107.276 301.759C108.022 304.777 108.631 307.843 109.106 310.936C110.456 319.576 110.659 327.666 109.938 333.912C146.208 355.268 136.801 390.998 103.729 383.629Z" fill="#6B3EF7" stroke="#3813D1" stroke-miterlimit="10"/>
<path d="M96.3832 292.765L102.239 329.888L102.974 330.227C104.373 319.231 101.963 306.412 96.3832 292.765Z" fill="#726DAF" stroke="#5C5DA3" stroke-miterlimit="10"/>
<path d="M44.1871 78.4426C42.0434 69.9808 36.425 64.7843 32.3649 65.4083C27.7386 66.1291 22.6622 74.8868 25.1689 86.0545C23.2139 99.8043 29.5678 106.227 31.7019 107.104C34.5087 108.223 34.4748 99.2072 44.1871 78.4426Z" fill="#6B3EF7" stroke="#3813D1" stroke-miterlimit="10"/>
<path d="M83.6173 371.745L84.2415 366.108C85.2045 365.016 86.3176 365.177 87.5128 365.962C90.4019 367.603 92.2505 369.534 93.4167 371.751C93.8281 381.03 105.737 379.395 101.837 371.6C99.0109 369.54 95.6815 367.474 93.1651 364.289C96.4364 364.849 99.5868 366.145 102.466 368.109C108.201 381.821 120.308 368.797 107.746 365.979C100.472 363.074 93.8765 359.701 88.5146 355.462C91.9166 353.003 94.9217 349.819 97.3849 346.058C97.9559 345.171 98.4931 344.246 98.9867 343.288C101.029 339.329 102.379 334.896 102.95 330.281C103.129 328.914 103.245 327.537 103.303 326.155C103.729 316.525 101.503 305.707 96.9978 294.314L96.93 294.152C96.7558 293.706 96.5767 293.259 96.388 292.808L89.9276 298.811L88.079 300.522L75.9906 311.657C80.7331 309.812 85.4465 306.563 89.2308 303.357C87.6 308.994 83.2543 313.475 77.7086 315.277C84.4254 330.2 85.8385 344.267 75.5744 355.897L78.8409 361.358C79.262 364.386 79.262 367.474 78.8409 370.503C70.7304 377.017 88.079 380.998 83.6173 371.745Z" fill="#7252F7" stroke="#3813D1" stroke-miterlimit="10"/>
<path d="M29.2435 108.912C32.5003 109.138 35.5491 102.3 36.0281 93.6342C36.0959 92.2517 36.0959 90.8638 36.0281 89.4759C35.7184 82.7731 33.7198 77.7164 31.0098 77.5228C28.2999 77.3291 25.4931 82.4772 24.5495 89.5297C24.4091 90.584 24.2978 91.6761 24.2349 92.8004C23.7655 101.477 25.9964 108.686 29.2435 108.912Z" fill="white" stroke="#5C5DA3" stroke-miterlimit="10"/>
<path d="M22.5605 363.859L42.5466 360.201C41.9127 361.799 38.7575 364.187 36.6911 364.569C29.0548 366.398 37.3541 376.108 42.9144 367.883C50.3717 365.925 57.979 362.1 65.6346 357.232C58.9226 345.316 57.3547 331.523 61.4148 316.897C58.5113 315.401 56.0094 312.044 54.9351 307.617C54.8044 307.079 54.6931 306.531 54.606 305.982C57.1321 308.478 59.9776 310.474 63.0263 311.878L54.4076 302.211L44.4339 291.027C39.7495 301.092 37.9106 310.527 38.351 319.414C38.7478 327.483 41.0271 335.074 44.763 342.218C46.5632 345.644 48.6005 348.877 50.8459 351.89C41.5546 352.89 32.6794 354.122 27.4675 357.35C19.2166 353.805 12.161 364.736 22.5605 363.859Z" fill="#7252F7" stroke="#3813D1" stroke-miterlimit="10"/>
<path d="M118.005 35.375C97.051 15.4227 63.9506 -0.0861603 36.0475 0.00528993L118.005 35.375Z" fill="#A04E53"/>
<path d="M30.9856 101.408C30.9856 101.408 27.6611 97.9003 27.6611 93.5645C27.6611 89.2341 30.9856 85.7267 30.9856 85.7267C30.9856 85.7267 34.3102 89.2341 34.3102 93.5645C34.3102 97.9003 30.9856 101.408 30.9856 101.408Z" fill="#020608"/>
<path d="M96.3832 292.765C101.963 306.412 104.373 319.231 102.955 330.259C105.452 331.416 107.78 332.632 109.938 333.912C110.659 327.666 110.436 319.576 109.106 310.936C108.631 307.838 108.022 304.777 107.276 301.759C103.1 297.02 99.1464 292.001 95.4347 286.724L96.3832 292.765Z" fill="#4128DB"/>
<path d="M49.7764 193.692C39.9286 198.458 32.6842 192.826 28.4693 175.16C31.2954 174.326 32.8052 166.703 28.2224 164.191C27.7337 162.228 27.845 160.011 28.3483 157.639C36.7686 154.363 26.9304 144.088 25.1931 152.459C24.9656 153.577 25.2899 162.916 23.0541 163.578C21.283 164.121 18.3649 159.129 15.7662 151.393C15.1371 141.415 5.96193 148.042 11.4932 153.524C13.1579 155.525 14.1548 157.445 14.6484 159.317C14.5419 161.501 13.5692 161.98 12.1368 161.598L6.47974 158.553C2.08086 151.77 -3.07293 162.922 3.96816 163.427L8.74449 165.557C13.2498 166.849 12.2046 170.969 6.85719 171.19C-1.56309 169.667 1.14204 182.616 8.12023 175.762C9.66879 174.391 11.4932 173.551 13.4047 173.325C15.0162 175.773 16.8164 177.78 19.1827 178.506C18.4327 209.018 28.3628 218.771 47.5939 210.449L54.214 207.851L56.6433 196.575L53.1833 193.471L49.7764 193.692Z" fill="#7252F7" stroke="#3813D1" stroke-miterlimit="10"/>
<path d="M97.2059 182.669C99.8529 185.063 102.069 188.086 103.729 191.551C106.27 197.07 121.968 303.362 121.968 303.362C121.968 303.362 118.305 313.19 99.8191 317.887C94.1329 319.334 91.7859 289.752 91.7859 289.752L90.4358 184.38L97.2059 182.669Z" fill="#1F2425"/>
<path d="M54.3785 207.005C55.6803 200.55 56.982 194.1 58.2741 187.65C55.6803 190.109 52.8251 192.137 49.7909 193.686C51.8428 193.788 53.522 194.471 54.214 197.667C55.1334 201.976 54.6108 207.188 54.3785 207.005Z" fill="#4128DB"/>
<path d="M24.6027 130.236C30.9034 130.177 37.3638 130.236 43.9935 129.644L38.4816 132.99C25.1544 157.203 39.9915 167.483 63.394 163.825C63.7763 170.447 65.291 176.139 61.0954 181.981L92.5989 166.73C92.9328 156.923 101.982 155.04 110.94 147.854C134.303 130.521 138.62 99.4549 126.73 82.8809C109.739 60.2927 54.2672 56.2527 41.7239 74.4298C41.7239 74.4298 39.3624 99.6216 23.2525 104.716C9.62038 109.036 3.25678 127.089 24.6027 130.236Z" fill="#6B3EF7" stroke="#3813D1" stroke-miterlimit="10"/>
<path d="M57.2143 191.378C62.1358 178.511 75.5551 180.458 79.1313 193.482C81.7445 200.378 80.6169 207.129 79.7023 225.823C78.4876 250.59 78.1247 253.699 81.2992 274.727C81.7493 277.686 82.0203 280.682 82.1026 283.689C82.3736 293.636 80.4524 304.169 74.1033 312.319C74.7324 312.13 75.3663 311.904 76.0003 311.662C80.7427 309.817 85.4562 306.568 89.2404 303.362C93.9345 299.354 97.1381 295.4 96.9977 294.292L96.93 294.131C98.5705 288.316 98.4592 276.411 97.743 262.462C97.3171 254.237 96.688 245.313 96.0734 236.523C95.4347 227.388 94.8249 218.389 94.5007 210.486C92.3666 209.244 90.7212 207.038 89.9034 204.348C89.0904 201.653 89.1775 198.678 90.1405 196.059C90.0002 196.753 89.9276 197.468 89.9131 198.183C89.8502 201.868 91.7956 203.977 94.3846 207.092C94.1813 200.362 94.2345 194.601 94.7427 190.485C94.8685 189.318 95.0862 188.167 95.3766 187.048C95.3766 186.983 95.4056 186.919 95.425 186.849C92.8602 182.142 91.5875 176.795 93.9926 168.537L62.6778 174.654C62.1068 182.508 59.3823 184.256 57.2143 191.378Z" fill="#6B3EF7" stroke="#3813D1" stroke-miterlimit="10"/>
<path d="M124.151 87.2702C123.105 87.4477 122.055 87.5553 121 87.6037C121.325 88.0072 121.654 88.4106 121.978 88.8248H123.047L124.151 87.2702Z" fill="#C2505A"/>
<path d="M45.0049 2.7649L48.3876 74.9622C59.3339 64.1388 74.0307 61.1747 88.5775 65.2469C87.75 62.9768 87.266 60.5722 87.1499 58.1246C86.8886 51.6424 89.6227 46.817 93.8232 39.4096C96.6396 34.1808 99.8723 29.2424 103.482 24.6592C84.2996 11.7432 63.636 2.7649 45.0049 2.7649Z" fill="#FC3A69"/>
<path d="M44.1339 290.279C44.1968 290.457 44.2936 290.699 44.4291 291.016C46.989 296.756 50.4491 301.84 54.6108 305.977C57.1369 308.473 59.9776 310.468 63.0263 311.873C63.3844 312.039 63.7473 312.19 64.1151 312.335C66.5831 313.234 69.1866 313.422 71.7224 312.878C72.5064 312.739 73.3 312.54 74.0888 312.298C82.4026 301.619 83.1285 286.885 81.2944 274.701C78.1199 253.673 78.478 250.563 79.6975 225.796C80.5976 207.087 81.7445 200.357 79.1313 193.461C75.5503 180.437 62.131 178.49 57.2095 191.357C54.9593 198.732 52.9268 209.373 51.6879 225.56C51.6783 225.613 36.9476 270.698 44.1339 290.279Z" fill="#893BD7" stroke="#3813D1" stroke-miterlimit="10"/>
<path d="M35.791 358.109C33.2843 359.905 30.463 360.949 27.5595 361.153C18.6988 361.46 22.4299 371.815 29.7565 366.613C35.8491 363.886 39.3866 362.504 42.5466 360.174" fill="#726DAF"/>
<path d="M35.791 358.109C33.2843 359.905 30.463 360.949 27.5595 361.153C18.6988 361.46 22.4299 371.815 29.7565 366.613C35.8491 363.886 39.3866 362.504 42.5466 360.174" fill="#7252F7"/>
<path d="M35.791 358.109C33.2843 359.905 30.463 360.949 27.5595 361.153C18.6988 361.46 22.4299 371.815 29.7565 366.613C35.8491 363.886 39.3866 362.504 42.5466 360.174" stroke="#4F2BE2" stroke-miterlimit="10"/>
<path d="M90.1309 196.075C89.9905 196.774 89.9131 197.484 89.9034 198.205C89.8405 201.885 91.7859 203.999 94.3749 207.108C95.5654 208.512 96.6929 209.997 97.743 211.557C98.5947 212.837 99.3738 214.182 100.08 215.586C102.064 219.524 104.426 224.177 103.163 228.863C102.263 232.246 99.6013 234.651 96.0638 236.539L95.9331 236.609C90.6196 237.846 87.1451 240.53 85.7514 244.834C83.4479 260.262 90.6245 263.533 96.9397 262.661C97.2107 262.624 97.4768 262.565 97.7382 262.479C101.6 261.236 104.494 255.254 104.494 255.254C104.494 255.254 103.066 251.295 101.227 248.949C106.183 248.998 110.122 248.223 113.132 246.765C120.787 243.07 122.428 235 119.631 224.925C117.652 217.776 113.432 209.636 107.523 201.32C104.557 197.194 101.401 193.272 98.0721 189.577C97.2688 188.678 96.4509 187.78 95.6137 186.887C95.5363 186.946 95.4492 187.005 95.3621 187.086" fill="#7252F7"/>
<path d="M90.1309 196.075C89.9905 196.774 89.9131 197.484 89.9034 198.205C89.8405 201.885 91.7859 203.999 94.3749 207.108C95.5654 208.512 96.6929 209.997 97.743 211.557C98.5947 212.837 99.3738 214.182 100.08 215.586C102.064 219.524 104.426 224.177 103.163 228.863C102.263 232.246 99.6013 234.651 96.0638 236.539L95.9331 236.609C90.6196 237.846 87.1451 240.53 85.7514 244.834C83.4479 260.262 90.6245 263.533 96.9397 262.661C97.2107 262.624 97.4768 262.565 97.7382 262.479C101.6 261.236 104.494 255.254 104.494 255.254C104.494 255.254 103.066 251.295 101.227 248.949C106.183 248.998 110.122 248.223 113.132 246.765C120.787 243.07 122.428 235 119.631 224.925C117.652 217.776 113.432 209.636 107.523 201.32C104.557 197.194 101.401 193.272 98.0721 189.577C97.2688 188.678 96.4509 187.78 95.6137 186.887C95.5363 186.946 95.4492 187.005 95.3621 187.086" stroke="#3813D1" stroke-miterlimit="10"/>
<path d="M100.453 249.255C98.2608 250.385 95.8315 250.439 93.2232 249.713C95.0427 251.94 96.1364 254.888 96.3058 258.018C97.4865 256.91 98.8657 256.157 100.327 255.807C99.8771 256.125 98.2802 253.252 98.6915 252.838C99.3642 250.541 100.492 249.438 101.881 249.912" fill="#726DAF"/>
<path d="M100.453 249.255C98.2608 250.385 95.8315 250.439 93.2232 249.713C95.0427 251.94 96.1364 254.888 96.3058 258.018C97.4865 256.91 98.8657 256.157 100.327 255.807C99.8771 256.125 98.2802 253.252 98.6915 252.838C99.3642 250.541 100.492 249.438 101.881 249.912" fill="#4128DB"/>
<path d="M92.2649 164.406C78.8748 171.491 62.7891 177.543 63.3892 163.831C63.3892 163.831 83.2494 161.996 95.6863 158.65C94.0845 159.134 96.7461 157.892 94.22 160.947C93.1747 162.212 92.5988 163.438 92.2649 164.406Z" fill="#4128DB"/>
<path d="M94.5733 106.276C97.9269 107.093 101.029 108.89 103.555 111.478C104.17 105.673 103.976 99.7989 102.979 94.059C100.492 98.3841 97.6801 102.472 94.5733 106.276Z" fill="#943C4E"/>
<path d="M47.081 148.87C49.0989 150.538 51.4169 151.705 53.8753 152.292C53.1252 151.592 52.5058 150.732 52.0605 149.758C49.6942 144.459 53.7736 136.471 57.3014 130.118C55.1673 130.344 52.9703 130.457 50.7007 130.457C48.6682 136.207 43.7661 144.077 47.081 148.87Z" fill="#943C4E"/>
<path d="M108.588 101.94C106.294 95.5657 102.844 92.0906 97.0414 94.5006" stroke="#5C5DA3" stroke-miterlimit="10"/>
<path d="M29.408 120.499C28.7595 119.886 29.0934 118.288 30.1339 116.922C31.1743 115.555 32.5535 114.958 33.1971 115.572C33.8456 116.185 33.5213 117.782 32.4712 119.149C31.426 120.521 30.0468 121.112 29.408 120.499Z" fill="#4128DB"/>
<path d="M17.1503 118.035C16.4583 116.422 16.5115 114.77 17.2761 114.372C18.0407 113.969 19.2215 114.942 19.9232 116.556C20.6249 118.17 20.562 119.811 19.7974 120.225C19.0328 120.634 17.8472 119.622 17.1503 118.035Z" fill="#4128DB"/>
<path d="M95.8895 79.5507C86.1482 59.1788 72.4676 50.3351 58.7822 74.0153L95.8895 79.5507Z" fill="#726DAF"/>
<path d="M95.8895 79.5507C86.1482 59.1788 72.4676 50.3351 58.7822 74.0153L95.8895 79.5507Z" fill="#6B3EF7"/>
<path d="M95.8895 79.5507C86.1482 59.1788 72.4676 50.3351 58.7822 74.0153" stroke="#3813D1" stroke-miterlimit="10"/>
<path d="M73.2564 108.363C71.0401 108.363 68.8721 107.632 67.0283 106.26C65.1846 104.888 63.7473 102.941 62.9005 100.66C62.0536 98.3789 61.831 95.8721 62.2617 93.4514C62.6924 91.0306 63.7618 88.8089 65.3298 87.0606C66.8977 85.3177 68.8963 84.1288 71.0739 83.6447C73.2467 83.1659 75.5018 83.408 77.5537 84.3547C79.6007 85.2961 81.3525 86.8992 82.5865 88.9488C83.8205 90.9983 84.4786 93.4137 84.4786 95.8828C84.4786 99.1912 83.2979 102.365 81.1928 104.71C79.0829 107.045 76.2326 108.363 73.2564 108.363Z" fill="#5C5DA3" stroke="#5C5DA3" stroke-miterlimit="10"/>
<path d="M61.0906 89.2775C61.0906 99.1164 66.9945 107.089 74.2824 107.089C81.5703 107.089 87.4742 99.1164 87.4742 89.2775C87.4838 86.4586 86.9805 83.6613 85.9837 81.0685C83.7915 75.3663 79.3733 71.4716 74.2824 71.4716C67.6091 71.4716 62.0972 78.1528 61.2164 86.8298C61.1293 87.6421 61.0858 88.4598 61.0906 89.2775Z" fill="white" stroke="#5C5DA3" stroke-miterlimit="10"/>
<path d="M45.6921 153.712C46.2486 154.922 47.018 155.998 47.952 156.87C67.6526 161.948 99.8384 144.986 103.56 111.473C101.029 108.885 97.9317 107.094 94.5781 106.271C83.6414 119.558 69.8109 127.406 52.2299 129.225C47.8262 137.165 42.745 147.111 45.6921 153.712Z" fill="#EE869A"/>
<path d="M74.1082 101.607C74.1082 101.607 69.3802 97.7119 69.3802 92.9135C69.3802 88.115 74.1082 84.2203 74.1082 84.2203C74.1082 84.2203 78.8361 88.1043 78.8361 92.9135C78.8361 97.7227 74.1082 101.607 74.1082 101.607Z" fill="#020608"/>
<path d="M70.5803 92.919C69.9996 92.919 69.4334 92.7308 68.9495 92.3757C68.4656 92.0207 68.0881 91.5096 67.8655 90.9125C67.6429 90.3154 67.5848 89.6591 67.6961 89.0243C67.8074 88.3896 68.0881 87.8086 68.4994 87.3513C68.9108 86.8941 69.4334 86.5821 69.9996 86.4584C70.5706 86.3346 71.161 86.3938 71.6933 86.6413C72.2305 86.8887 72.6902 87.3083 73.0096 87.8409C73.3338 88.3788 73.5032 89.0082 73.5032 89.6537C73.5032 90.5144 73.1935 91.3429 72.6467 91.9561C72.095 92.5694 71.3546 92.9137 70.5803 92.919Z" fill="white"/>
<path d="M28.0482 92.6607C27.6369 92.6607 27.2304 92.5262 26.8868 92.268C26.5432 92.0151 26.2771 91.6493 26.1174 91.2244C25.9577 90.7994 25.919 90.3314 25.9964 89.8795C26.0787 89.4276 26.2771 89.0134 26.5674 88.6907C26.8578 88.3679 27.2304 88.1419 27.6369 88.0559C28.0434 87.9644 28.4596 88.0128 28.8419 88.1904C29.2242 88.3679 29.5484 88.6638 29.7807 89.0457C30.0081 89.4276 30.1339 89.8795 30.1339 90.3368C30.1339 90.9554 29.9113 91.5471 29.5242 91.9829C29.1322 92.4186 28.5999 92.6607 28.0482 92.6607Z" fill="white"/>
<path opacity="0.28" d="M61.2164 86.8298C63.7473 89.4604 67.7252 91.171 72.1966 91.171C79.4168 91.171 85.3497 86.733 85.9885 81.0685C83.7963 75.3663 79.3781 71.4716 74.2872 71.4716C67.609 71.4716 62.0971 78.1582 61.2164 86.8298Z" fill="#D8D8D8"/>
<path d="M25.8657 172.604C26.1609 172.093 27.874 169.113 26.9981 167.424C26.2432 165.971 24.472 167.176 20.8426 165.826C18.3988 164.917 17.6922 163.793 16.6953 164.379C15.4807 165.105 15.2533 167.655 15.4371 169.253C15.6888 171.437 16.8454 172.814 17.5713 173.669C18.4713 174.718 19.5166 175.977 21.0894 176.112C23.7171 176.327 25.5221 173.201 25.8657 172.604Z" fill="#4128DB"/>
<path d="M26.7271 153.674C26.8432 154.46 27.3949 155.406 28.1546 155.406C28.4547 155.374 28.7353 155.24 28.9725 155.014C29.2048 154.788 29.379 154.481 29.4709 154.137C29.8484 152.824 28.8854 151.054 28.024 151.097C27.3029 151.124 26.548 152.453 26.7271 153.674Z" fill="#4128DB"/>
<path d="M11.1398 150.301C11.1979 150.737 11.3624 151.135 11.6189 151.447C11.8754 151.759 12.2045 151.963 12.5674 152.028C12.9449 152.038 13.3127 151.899 13.6175 151.624C13.9176 151.35 14.1353 150.963 14.2321 150.516C14.5225 149.166 13.4143 147.568 12.4319 147.713C11.6286 147.837 10.9511 149.128 11.1398 150.301Z" fill="#4128DB"/>
<path d="M1.79538 160.301C1.86313 160.732 2.03735 161.124 2.28899 161.431C2.54547 161.738 2.8697 161.947 3.22296 162.034C3.50848 162.06 3.794 162.007 4.06016 161.888C4.32631 161.765 4.56827 161.576 4.76668 161.323C4.96509 161.076 5.11511 160.78 5.2119 160.452C5.30384 160.124 5.33771 159.78 5.30867 159.435C5.28448 159.134 5.20705 158.838 5.08123 158.575C4.95541 158.311 4.78604 158.08 4.58279 157.897C4.37954 157.714 4.14725 157.59 3.90045 157.526C3.65365 157.461 3.40202 157.456 3.15522 157.52C2.90842 157.579 2.67613 157.703 2.46804 157.881C2.26479 158.058 2.09058 158.284 1.96476 158.548C1.8341 158.811 1.75667 159.102 1.72764 159.403C1.6986 159.699 1.71795 160.011 1.79538 160.301Z" fill="#4128DB"/>
<path d="M3.23751 175.929C3.5569 176.321 4.23922 176.085 4.69895 175.929C4.89736 175.864 6.62498 175.246 6.62982 174.1C6.62982 173.131 5.3958 172.088 4.41344 172.384C3.14072 172.782 2.69551 175.283 3.23751 175.929Z" fill="#4128DB"/>
<path d="M89.3324 200.572C89.3324 202.643 89.8115 204.677 90.7164 206.436C91.6214 208.195 92.9231 209.604 94.462 210.508C94.4185 209.351 94.3749 208.216 94.3459 207.114C91.7569 203.999 89.8115 201.89 89.8744 198.211C89.8889 197.495 89.9663 196.78 90.1018 196.08C89.5889 197.49 89.3227 199.023 89.3324 200.572Z" fill="#5C5DA3" stroke="#5C5DA3" stroke-miterlimit="10"/>
<path d="M75.9954 311.662C76.6052 312.873 77.181 314.083 77.7182 315.283C83.264 313.481 87.629 309.005 89.2404 303.362C85.4561 306.568 80.7282 309.817 75.9954 311.662Z" fill="#4128DB"/>
<path d="M54.6108 305.977C54.6979 306.531 54.8044 307.074 54.9399 307.612C56.0287 312.034 58.5161 315.391 61.4196 316.891C61.8794 315.224 62.4117 313.551 63.0214 311.862C59.9775 310.463 57.1369 308.473 54.6108 305.977Z" fill="#4128DB"/>
<path opacity="0.28" d="M24.5785 89.5295C25.7883 90.2933 27.1094 90.8098 28.4789 91.0572C31.0921 91.5683 33.7876 91.0088 36.062 89.4811C35.7523 82.7783 33.7537 77.7216 31.0437 77.528C28.3289 77.3289 25.5415 82.477 24.5785 89.5295Z" fill="#D8D8D8"/>
<path d="M93.1941 351.347C89.5211 353.412 85.6546 354.919 81.6719 355.817L90.5712 356.973L88.1129 355.473L93.1941 351.347Z" fill="#5C5DA3"/>
<path d="M48.7505 348.888C51.3492 351.191 54.2575 352.933 57.3498 354.031L45.8711 352.433L51.0782 352.051L48.7505 348.888Z" fill="#5C5DA3"/>
<path d="M97.1236 346.042C97.6946 345.155 98.2318 344.229 98.7254 343.272C100.768 339.313 102.118 334.885 102.689 330.264C102.868 328.898 102.984 327.521 103.042 326.138C102.539 325.886 101.997 325.746 101.45 325.735C97.7091 325.654 95.0863 331.636 94.6604 336.107C94.3459 339.479 95.1008 344.084 97.1236 346.042Z" fill="#7F6BF2"/>
<path d="M38.7575 319.382C39.1543 327.451 41.4336 335.041 45.1695 342.185C45.8663 342.029 46.5244 341.663 47.0761 341.12C49.8974 338.307 48.4263 331.943 48.2085 330.985L48.1649 330.786C47.5407 328.177 44.6855 319.425 39.5414 319.323C39.2753 319.323 39.0188 319.339 38.7575 319.382Z" fill="#7F6BF2"/>
<path d="M110.833 240.105C111.08 242.311 111.709 244.425 112.682 246.313C120.337 242.618 121.978 234.549 119.181 224.473C113.921 224.898 110.112 233.188 110.833 240.105Z" fill="#7F6BF2"/>
<path d="M41.7578 74.4297L48.3875 74.9623L45.0146 2.75427L36.062 0L41.7578 74.4297Z" fill="#CC214E"/>
<path d="M87.1838 58.1247C87.2999 60.5724 87.779 62.977 88.6113 65.2471C100.1 68.4586 111.52 76.0436 120.976 87.604C122.031 87.5556 123.086 87.448 124.127 87.2704L144.113 59.8515C131.802 46.4567 118.174 34.6543 103.487 24.6539C99.8819 29.2426 96.6542 34.1755 93.8426 39.4043C89.6566 46.8279 86.937 51.6425 87.1838 58.1247Z" fill="#FC3A69"/>
<path d="M74.2823 71.4708C84.2754 70.6478 86.9708 84.4352 86.9708 84.4352C86.9708 84.4352 79.7265 83.4723 73.2612 83.4024C69.356 83.5046 65.4604 83.8543 61.589 84.4352C61.5842 84.4352 62.7456 72.4284 74.2823 71.4708Z" fill="#4128DB"/>
<path d="M30.9857 77.2113C35.0894 78.0882 35.4717 85.727 35.4717 85.727C33.5795 85.0922 31.6245 84.7425 29.6501 84.6941C28.1886 84.8609 26.7417 85.1514 25.3238 85.5709C25.3189 85.5656 26.9594 76.3937 30.9857 77.2113Z" fill="#4128DB"/>
<path d="M95.6476 162.91C95.6476 162.91 79.6249 170.893 71.8918 170.253C69.9658 170.705 61.2793 169.097 61.2793 169.097C60.6502 173.008 60.7228 174.471 58.7677 177.128C58.7677 177.128 69.3173 179.28 71.7127 179.366C79.2523 179.597 94.4233 176.45 94.4233 176.45C93.9394 171.975 93.9684 167.477 95.6476 162.91Z" fill="#1F2425"/>
<path d="M80.2878 175.848C79.32 175.832 78.5457 174.945 78.5602 173.863C78.5747 172.782 79.3732 171.927 80.3459 171.943C81.3137 171.959 82.088 172.847 82.0735 173.928C82.059 175.009 81.2557 175.87 80.2878 175.848Z" fill="white"/>
<path d="M68.7801 176.273C67.9817 176.257 67.338 175.525 67.3525 174.632C67.3671 173.739 68.0252 173.029 68.8285 173.046C69.627 173.062 70.2706 173.793 70.2561 174.686C70.2416 175.574 69.5834 176.284 68.7801 176.273Z" fill="white"/>
<path d="M60.1325 175.805L55.8546 171.743C55.8255 171.716 55.8062 171.684 55.7965 171.646C55.7868 171.609 55.7868 171.566 55.7965 171.528C55.8062 171.49 55.8255 171.453 55.8546 171.431C55.8836 171.404 55.9175 171.388 55.9514 171.383L62.2956 170.909C63.0409 172.093 62.8231 172.959 62.436 174.099C62.2327 174.594 61.9085 175.019 61.502 175.32C61.0955 175.627 60.6212 175.794 60.1325 175.805Z" fill="url(#paint0_linear_146_369)"/>
<path d="M89.4824 167.01L97.2155 167.23C97.2639 167.23 97.3123 167.246 97.3558 167.279C97.3945 167.311 97.4284 167.354 97.4478 167.402C97.4671 167.451 97.472 167.51 97.4623 167.564C97.4526 167.617 97.4284 167.666 97.3946 167.704L92.1198 173.901C90.4067 173.347 89.042 172.518 88.3452 171.05C88.1758 170.323 88.1903 169.565 88.3887 168.849C88.592 168.128 88.9694 167.494 89.4824 167.01Z" fill="url(#paint1_linear_146_369)"/>
<path d="M97.2058 182.67C96.5719 182.761 97.501 186.989 96.78 186.398C93.2909 183.557 89.7631 186.629 89.3324 187.651C88.742 189.066 86.6998 196.791 90.5664 200.927C94.4329 205.064 101.881 219.368 101.881 219.368C101.881 219.368 104.891 225.431 103.158 228.863C101.43 232.295 98.3866 235.291 94.4813 237.002C90.5761 238.718 86.1578 240.606 85.7417 244.834C85.3255 249.068 85.0496 258.853 88.9646 260.714C92.8844 262.576 96.4509 263.06 97.7236 262.473C98.9963 261.882 99.8093 317.871 99.8093 317.871L79.862 316.881L82.1122 229.067C82.1122 229.067 84.5851 189.733 88.9646 184.359C93.3489 179.001 97.2058 182.67 97.2058 182.67Z" fill="#1F2425"/>
<path d="M54.1511 186.73C54.1511 186.73 56.4353 190.076 56.4014 192.137C56.3578 193.562 56.1643 194.977 55.8352 196.344C55.8352 196.344 58.0516 187.15 59.4404 184.374L60.8245 181.599" fill="#1F2425"/>
<path d="M63.2583 177.08L63.2924 177.069" stroke="#3813D1" stroke-miterlimit="10"/>
<defs>
<linearGradient id="paint0_linear_146_369" x1="62.9853" y1="174.117" x2="56.2598" y2="171.885" gradientUnits="userSpaceOnUse">
<stop stop-color="white"/>
<stop offset="1" stop-color="#D2D2D2"/>
</linearGradient>
<linearGradient id="paint1_linear_146_369" x1="88.1727" y1="170.388" x2="97.3399" y2="170.595" gradientUnits="userSpaceOnUse">
<stop stop-color="white"/>
<stop offset="1" stop-color="#D2D2D2"/>
</linearGradient>
</defs>
</svg>
